<svg viewBox="0 0 1000 1000" xmlns="http://www.w3.org/2000/svg" fill-rule="evenodd" clip-rule="evenodd" stroke-linecap="round">
  <path d="M826.55 390.5V93.7c0-37.1-30.1-67.1-67.1-67.1h-75.2c-6 0-10.7 3.1-10.7 8.1v10.7c0 7.4-1.4 32.2-37.6 32.2h-308.4c-36.2 0-37.6-24.8-37.6-32.2V34.7c0-5-4.8-8.1-10.7-8.1h-80.6c-37.1 0-67.1 30.1-67.1 67.1v540.7c0 13.7-27 16.5-27-2.2V89.5c0-49.7 40.3-90 90-90h569c49.7 0 90 40.3 90 90v370M173.55 1000.5v-252c0-22.1 17.9-40 40-40h219" fill="none" stroke="#dbdde6" stroke-width="5"/>
  <g fill-rule="nonzero">
    <path d="M389.65 355.5h178.9c11 0 20 8.9 20 19.9v58.1c0 11-9 20-20 20h-109.5s-7.8-10.9-12.6-17.3-13.1-10-8.1 4.6c0 .1 2.8 3.9 2.9 4.3 2.7 7.8 2.3 8.4 2.3 8.4h-54c-11 0-20-8.9-20-20v-58c0-11.1 9-20 20.1-20z" fill="#212225"/>
    <path d="M465.45 407.2c0-4.4 2.5-7.1 6-7.1 1.6 0 3.2.8 4.2 2.1v-6.9h3.6V414h-3.6v-1.7c-1 1.3-2.5 2.1-4.2 2.1-3.4-.1-6-2.7-6-7.2zm3.7 0c0 2.3 1.4 3.9 3.4 3.9 1.2 0 2.4-.6 3.1-1.5v-4.8c-.7-1-1.9-1.5-3.1-1.5-2-.1-3.4 1.5-3.4 3.9zm-35.4-.1c-.1-3.8 2.9-7 6.7-7.1h.3c4 0 6.8 3 6.8 7.5v.8h-10.1c.3 1.9 2 3.3 3.9 3.1 1.3 0 2.6-.5 3.6-1.3l1.6 2.3c-1.6 1.3-3.5 1.9-5.6 1.9-3.8.2-7-2.7-7.2-6.5v-.7zm3.7-1.2h6.7c-.1-1.7-1.5-3.1-3.3-3h-.1c-1.7-.1-3.2 1.2-3.3 3zm-20.8 5.4l2.2-3c1.5 1.6 3.7 2.5 5.9 2.5s3.2-1 3.2-2.1c0-3.3-10.8-1-10.8-8.1 0-3.1 2.7-5.7 7.1-5.7 2.7-.1 5.3.8 7.3 2.6l-2.2 2.9c-1.5-1.3-3.4-2.1-5.4-2.1-1.7 0-2.7.8-2.7 1.9 0 3 10.7 1 10.7 8 0 3.4-2.4 6-7.5 6-2.8.2-5.7-.9-7.8-2.9zm121.6 2.6l-5.7-7.5-1.5 1.7v5.8h-4v-18.7h4v8.4l6.6-8.4h4.9l-7.4 8.8 7.9 9.9h-4.8zm-18.5 0l-3.7-6.6h-2.9v6.6h-4v-18.7h8.7c3.9 0 6.3 2.6 6.3 6 .2 2.6-1.6 4.9-4.1 5.6l4.2 7.1h-4.5zm-6.6-10.1h4.2c1.4.1 2.6-.9 2.8-2.3.2-1.4-.9-2.6-2.3-2.8h-4.7v5.1zm-10.3 10.1l-1.1-3.2h-8l-1.2 3.2h-4.5l7.2-18.7h5l7.2 18.7h-4.6zm-8-6.7h5.8l-2.9-8-2.9 8zm-35.6 6.7v-8.2c0-1.9-1-2.5-2.5-2.5-1.2 0-2.4.6-3.1 1.6v9.1h-3.6v-13.5h3.6v1.8c1.2-1.4 2.9-2.1 4.7-2.1 3 0 4.4 1.7 4.4 4.3v9.6l-3.5-.1z" fill="#fff"/>
  </g>
  <g fill-rule="nonzero">
    <path d="M272.73 355.3h60.8c11 0 20 9 20 20v58.2c0 11-9 20-20 20h-60.8c-11 0-20-9-20-20v-58.2c0-11 9-20 20-20z"/>
    <path d="M272.73 357.3h60.8c9.9 0 18 8.1 18 18v58.2c0 9.9-8.1 18-18 18h-60.8c-9.9 0-18-8.1-18-18v-58.2c0-9.9 8.1-18 18-18zM665.55 453.5h-36c-11 0-20-9-20-20v-58c0-11 9-20 20-20h61c11 0 20 9 20 20v39" stroke="#dbdde6" stroke-width="4" stroke-linecap="butt"/>
    <path d="M317.85 421.2v-3.5h3.5v3.5h-3.5zm-5.6 0v-3.5h3.5v3.5h-3.5zm-6.3 0v-15.4h9.8v4.2h2.1v-4.2h3.5v9.1h-9.1v-2.8h-2.1v9.1h-4.2zm-19.6 0v-15.4h15.4v15.4h-15.4zm3.5-3.5h8.4v-8.4h-8.4v8.4zm358.4 2.8c-2.6 0-4.7-2.1-4.7-4.6v-10c-.1-.8.5-1.5 1.2-1.5h3.5c.8-.1 1.5.4 1.6 1.2v5.8c0 1.7 1.4 3.1 3.1 3.1h17.2c1.7 0 3.1-1.4 3.1-3.1V406c-.1-.8.5-1.5 1.2-1.5h3.5c.9 0 1.6.7 1.6 1.5v10c0 2.6-2.1 4.7-4.7 4.6h-26.6v-.1zm-356.3-4.9v-4.2h4.2v4.2h-4.2zm368.2-9.5l-2.3-2.3-6-6.1c-.6-.6-.6-1.7 0-2.3l2.3-2.3c.6-.6 1.6-.6 2.3 0l4.9 5 10.9-11.1c.6-.6 1.6-.6 2.3 0l2.3 2.3c.6.6.6 1.7 0 2.3l-12.1 12.2-2.3 2.3c-.7.6-1.7.6-2.3 0zm-354.2-4.5v-15.4h15.4v15.4h-15.4zm3.5-3.5h8.4v-8.4h-8.4v8.4zm-23.1 3.5v-15.4h15.4v15.4h-15.4zm3.5-3.5h8.4v-8.4h-8.4v8.4zm21.7-2.1v-4.2h4.2v4.2h-4.2zm-19.6 0v-4.2h4.2v4.2h-4.2z" fill="#dbdde6"/>
  </g>
  <g fill-rule="nonzero">
    <path d="M599.55 999.5l4-14 8-2s19.7-5.1 15-1.6c-13.2 9.9-13 17.6-13 17.6h-14zm166-36c-12.1-9-27.3-8.6-27.3-8.6s10-2.4 15.3-3.4c5.3-1 18-7 18-7s5.1 8.7 12 21 7 32 7 32l-16 1s3.1-26-9-35zm-174.4 8.4l2.1-5.5 18.3 1.1 11.8-2.7v-6.9l3.2-3.3s37.9-5.4 45-6c7.1-.6 59-12 59-12l6-8 6-9s14-31 21-49 23-79 23-79-1.3 40.2-7 80c-4.8 33.5-20.8 47.7-28 63-7.2 15.3-20.4 15.3-39 20-18.6 4.7-77 7-77 7s4.8 7.2-1 11-11 3.8-17 3c-6-.8-15.2-.1-20 3-.5.4-1.2.6-1.8.6-3.4-.1-4.6-7.3-4.6-7.3zm78.4-122.4c.1-8-4.8-17.7-19-21-13.7-3.2-30-25-30-25s7.9 5.7 24 11c6 2 13.7 2.3 22.3-2.4 8.3-4.5 9.1-17 9.2-17.9l-2.5 48.3s-2.5 9.4-3.6 9.4c-.2 0-.4-.7-.4-2.4zm134-181c-6.3-6.9-19-8-19-8 4.6-.5 8.9-2.6 12-6 5-5.6-9.8-9.9-19.3-8.9s1.3-3.1 1.3-3.1l29-3s25.6 20.8 29 48c3.4 27.2-17.7 30.8-18.3 33.2-.3-36-8.4-45.3-14.7-52.2zM611.65 725.3s-10.4 17.3-18.8 20.5c-8.4 3.2-49.4 10-60.3 9.6-10.9-.4-13-9.2-18-20s-11.7-37.6-13-42c-1.3-4.4 1.4-8.3 9-11 7.6-2.7 22.1-11.8 35.4-17.3 13.3-5.5-61.7 13.7-61.7 13.7s13.6 56.4 20.3 65.5c6.7 9.1 13.3 15.9 28 15.5 14.7-.4 70.9-9.7 70.9-9.7l5-13.4 3.2-11.4z" fill="#212225"/>
    <path d="M479.95 976.4c-4.7-.7-14.3-1.1-17.5-2.3-3.2-1.2-13-5.8-15.8-7.2-2.8-1.4-11-7.5-12.1-8.4-1.1-.9-2-8-2-8s6.3 7.4 15 10c7 2.1 15.3 2.2 20 1 4.7-1.2 6.8 1.4 9 3s14.3 9.6 14.3 9.6-5 2.4-9.4 2.4c-.5 0-1-.1-1.5-.1zm33.1-13.8c1.2-.8 5-4 14.5-6.1 9.5-2.1 45.5-7.5 51-12s-3.5-27-5-32 5.8-1.2 5.8-1.2l7.6 42-3.4 2.2s-64.6 7.2-70.1 7.2c-.3-.1-.4-.1-.4-.1zm-49.1-433.3h4.9l29.7 113.2-18 2-16.6-115.2zm279.6 68.2c-2.4-11.1-7.4-27.5-15-29s-9.9.4-18 5-7 32-7 32-8.2-15.9-14-23c-5.5-6.7-20-18-20-18s25.8.6 31 0c5.2-.6 22.7-5.9 24-6 1.3-.1 12-4 12-4l10-7 8 4 35 69s-3.9 3-14.9 3.8c-5.9.4-44.6 14.8-48.1 17.2 19.9-22 18.1-38.9 17-44zm-301-79l-6-7-4-10-5-6 1-8 8-7 5 5s4.5 7.9 5 9c.5 1.1.3 9.3 1 14 .7 4.7 8 12.7 8 12.7l-13-2.7zm9-40l-3.6-1.2-6.4-27.8-2-14s8.7 24.6 14 31c5.3 6.4 6 19 6 19l-8-7z" fill="#dbdee5"/>
  </g>
  <path d="M834.05 879c-12.7 0-25.1-4.3-35-12.3.4-2 .5-6-1.3-13.8-1-4.6-2.3-8.5-2.3-8.5.2-.7 18.3-77.4 19.7-83.7 2.1-8.8 3.6-17.8 4.5-26.8.8-7.3 1.1-14.7.9-22-.3-10.3-1.4-20.5-3.2-30.6-.5-2.9-.9-5.5-1.2-7.6-.2-2.1-1.7-7.4-7.6-20.4-3.5-7.8-7-14.8-7-14.8.1-.1 6-5.1 7-9 .4-1.8 0-3.7-1.2-5.1-1.5-1.9-3.8-2.9-6.2-2.9h-.6c-2 .1-4.6.6-7.4 1-3.6.7-7.2 1.1-10.8 1.3-.9 0-1.9-.1-2.8-.3-4.7-1.2-9.2-3.3-13-6.3-4-3.1-7.5-6.7-10.4-10.8-5.8-8-9.8-17.2-11.5-26.9-.6-3.9-1.7-7.7-3.3-11.4-1.2-2.7-2.6-5.3-4.3-7.8-1.5-2.2-3.3-4.2-5.4-5.9.1-.1 7.6-12.2 9-17 .7-2.6.3-5.4-1-7.7-.8-1.6-2.2-2.8-4-3.3-.3-.1-.7-.1-1-.1-3.1 0-7.2 3-11 8.1-3.5 4.7-7.5 5-8.7 5h-.3c-3.3-1-6.4-2.7-9-5-2.5-2.1-4.5-4.7-5.9-7.7-1.7-3.9-2.4-8.1-2-12.4.8-10 2.5-19.9 5.2-29.6 1.1-4.3 1.9-7.5 1.8-9.4 0-1.3 0-2.6.1-3.9.2-3.8.3-7.3-1.2-10.3-1.1-2.1 0-6.1 1.1-10 1-3.6 1.9-6.9 1.2-8.7-.3-.7-1-3.1.9-6.6 1.7-3.1 4.9-6 9.5-8.5 5.8-3.2 13.8-5.8 23.7-7.7 5.9-1.2 11.9-1.8 17.9-1.8 5.8 0 11.6.6 17.2 1.9 5.2 1.2 10.2 2.9 15 5.2 8.9 4.3 17 10.3 23.7 17.6 2.8 3 5.2 6.3 7.2 9.8 2.2 3.9 4.2 8 5.7 12.2 3.4 9.4 5.5 19.2 6.3 29.1-25.3 2.1-44.1 24.3-42.1 49.6.8 9.7 4.7 18.9 11 26.3 2.3 2.7 4.9 5.1 7.8 7.2-1.3 4.8-2.1 9.8-2.3 14.8-.2 4.8 0 9.6.7 14.4.7 4.7 1.8 9.3 3.2 13.8 1.4 4.5 3.1 8.9 5.1 13.2 7.8 17.1 19.2 32.1 28.3 44.1 2.6 3.4 5 6.6 7 9.5 11.4 15.7 21.4 32.5 29.7 50.1 6.5 13.8 11.3 28.3 14.4 43.2 2.4 11.8 3 23.9 1.7 35.9-1.1 9.8-3.9 19.4-8.3 28.2-2.8 5.5-6.4 10.6-10.5 15.1-3.9 4.2-8.4 7.9-13.3 11-9.6 5.9-20.4 9-31.4 9z" fill="#212225" fill-rule="nonzero"/>
  <circle cx="838.55" cy="539.5" r="39" fill="#212225"/>
  <path d="M703.55 565.5c-12.3 3.2-40.6 2-53-3-12.4-5-11.2-17.9-12-30-.8-13.2 9.8-54 42-79 8.7-6.7 21.8-14.6 26.2-14.7 4.4-.1-8.7 16.4-2.2 25.7 6.5 9.3-6.8 35.1-4 52s16.7 23.4 21 16c4.3-7.4 14.3-13.8 19-5 4.7 8.8-1.3 21.5-6 26s-13.1 9.9-17 4M770.55 945.5s16.8 20.6 19.6 45.8c.3 2.4.4 4.8.4 7.2v-1.4M602.55 986.5l-1 9" fill="none" stroke="#212225" stroke-width="5"/>
  <path d="M671.35 566.8c9.8 3.3 28.4 21.1 31.2 36.7 2.8 15.6-1.7 35.2-3 41-.7 3.2-16.6 21.1-16.6 21.1s-7.6 9.9-13.6 13.2" fill="none" stroke="#212225" stroke-width="5"/>
  <path d="M625.55 979.5c-11.7 4-25.7 10.8-33 4-4.3-4-2.9-9.8-.8-16.8m26.7-74.4c6.3-9.2 9.1-25.3 10.1-33.8 2.8-25.4-9.4-46.3-11-52-1.6-5.7-24.2-21.8-12-64 6-20.6 24.5-40.2 38.7-58.1.8-1 1.5-2 2.3-2.9m29.8-42.5c6.8-9.2 17.5-15.9 25.7-17.4M613.75 800.4c10.9 14.2 41.4 19 53.8 4.1M736.55 952.5c12.2.7 39.9-6.6 41-25 1.1-18.4 10.5-40 17-51s2.6-23 1-30 29.4-107.6 25-148c-4.4-40.4-19-55-19-55" fill="none" stroke="#212225" stroke-width="5"/>
  <path d="M697.95 662.1s12.4-17.1 29.7-23.3c18.1-6.1 55.3-16.7 65.9-18.3 10.6-1.6 19.7-.4 18 9-1.7 9.4-14.6 15-27 14s-61 8-61 8-35.9 13.9-45 21c-9.1 7.1-47.6 28.6-52.7 35M686.65 628.8c-17.7 4.5-34.6 11.9-50.1 21.7-24.7 16-51.8 31.1-79 34-2.2.2-10 2.2-11-7s-2-12-2-12M484.55 681.5s12.1 55.2 21 66c8.9 10.8 13.4 11.7 30 11 16.6-.7 68-10 68-10" fill="none" stroke="#212225" stroke-width="5"/>
  <g fill-rule="nonzero">
    <path d="M477.55 641.5c7.5.3 46.3-7.3 54-13 7.7-5.7 12.8-.3 18 5 5.2 5.3 8.6 16.2 8 23-.6 6.8-8.3 9.2-17 10-8.7.8-52.6 13.5-59 17-6.4 3.5-13.1-.2-13-9 .1-8.8.8-17.1-1-22-1.8-4.9 2.5-11.3 10-11z"/>
    <path d="M537.95 631c-.9 0-2.1.5-3.4 1.5-2.3 1.7-6.1 3.4-11.9 5.2-4.5 1.4-10.2 2.9-16.5 4.3-5.6 1.2-11.4 2.4-16.5 3.2-3.7.6-8.7 1.3-11.7 1.3h-.9c-2.7 0-3.9 1.4-4.3 2-.5.8-.7 1.6-.5 2.2 1.8 4.7 1.6 10.9 1.4 18.1 0 1.8-.1 3.7-.1 5.6 0 2 .5 3.6 1.4 4.5.5.5 1.1.8 1.9.8.7 0 1.5-.2 2.4-.7.7-.4 2.7-1.5 11.5-4.4 5.1-1.7 11.5-3.6 18.1-5.6 11.8-3.4 26.2-7.2 31.3-7.7 4.3-.4 7.5-1.1 9.7-2.2.9-.5 1.6-1 2.1-1.6.4-.5.6-1 .6-1.7.2-2.6-.3-6.3-1.6-10-1.3-3.8-3.1-7.1-5-9l-.3-.3c-2.7-2.6-5.5-5.5-7.7-5.5m0-5c4.4 0 8 3.8 11.6 7.5 5.2 5.3 8.6 16.2 8 23-.6 6.8-8.3 9.2-17 10-8.7.8-52.6 13.5-59 17-1.6.9-3.2 1.3-4.8 1.3-4.6 0-8.3-3.7-8.2-10.3.1-8.8.8-17.1-1-22-1.8-4.7 2.4-11 9.5-11h.9c8.4 0 46-7.4 53.6-13 2.3-1.7 4.4-2.5 6.4-2.5z" fill="#212225"/>
  </g>
  <path d="M555.55 684.5s-10.3-.7-14 13M473.35 646.6s6.3 8.2 19 1.9M527.55 630.5s-31.5-109.5-44-133-36.3-61.4-40-65c-3.7-3.6-8.1-.9-5 7 3.1 7.9 8.9 27.3 10 30 1.1 2.7-2 7.3-5 5s-9.9-6.7-11-7c-3.7-1-4.3 5.5 1 9s10.4 12.1 11 18c.6 5.9 4.1 27.1 23 35M461.75 527c6.1 14.4 19.8 114.5 19.8 114.5" fill="none" stroke="#212225" stroke-width="5"/>
  <path d="M434.55 482.5s-8.9 2.6-9 8c-.1 5.4 9.2 7 11 17 1.5 8.5 10.8 11.9 19.2 14.4M445.05 475.3s8.8 6.6 12.6 12.3M786.55 784.5s-18.2 91.1-49 142c-3.2 5.3-.8 9.4-25 15-28.1 6.5-81.2 14.7-88 14M716.55 683.5c-39.7 47-40 149.1-46 164-5.5 13.7-7.9 13-9 17-1.1 4 1.4 11.9 1 13-.4 1.1-27.9 9.6-51 18M662.55 877.5s8.9 2.3 14 2" fill="none" stroke="#212225" stroke-width="5"/>
  <g fill-rule="nonzero">
    <path d="M583.65 958.5c.6-7.4-5.3-46.5-10.7-54.5-5.4-8 .2-12.8 5.8-17.8s16.6-7.9 23.3-7c6.7.9 8.9 8.7 9.3 17.4.4 8.7 11.2 53.1 14.4 59.7 3.2 6.6-.8 13-9.6 12.6-8.8-.4-17.1-1.6-22 0-4.9 1.6-11.2-2.9-10.5-10.4z"/>
    <path d="M592.15 964.3c.2 0 .3 0 .5-.1 2.3-.7 5-1.1 8.7-1.1 2.9 0 6.1.2 9.5.4 1.8.1 3.7.3 5.6.3h.6c2.1 0 3.8-.6 4.4-1.7.6-.9.5-2.3-.2-3.7-.3-.7-1.4-2.8-3.9-11.7-1.4-5.1-3.1-11.6-4.8-18.3-2.9-11.9-6.1-26.5-6.3-31.6-.2-4.3-.8-7.6-1.8-9.8-.4-1-.9-1.7-1.5-2.2-.5-.4-1-.6-1.7-.7-.6-.1-1.3-.1-2-.1-5.9 0-13.7 2.6-17.3 5.9l-.3.3c-2.3 2.1-4.7 4.2-5.6 6.1-.3.7-.4 1.2-.4 1.8.1.9.5 1.9 1.3 3 1.6 2.4 3.1 6.4 4.7 12.4 1.2 4.7 2.5 10.6 3.6 17 1.8 10.2 3.5 23.4 3.1 28.3-.1 1.7.3 3.2 1.3 4.2.9.9 1.7 1.3 2.5 1.3m0 5c-4.4 0-9.1-4.3-8.5-10.8.6-7.4-5.3-46.5-10.7-54.5-5.4-8 .3-12.8 5.8-17.8 4.8-4.3 13.9-7.2 20.7-7.2.9 0 1.8.1 2.7.2 6.7.9 8.9 8.7 9.3 17.4.4 8.8 11.2 53.1 14.4 59.7 3.1 6.3-.5 12.6-8.7 12.6h-.8c-5.4-.3-10.5-.8-14.9-.8-2.8 0-5.2.2-7.1.8-.8.3-1.5.4-2.2.4z" fill="#212225"/>
  </g>
  <path d="M577.55 909.5c1 .9-28.5 17.6-60.8 23.8-7.1 1.4-15.2-3.1-26.1-2.6-10.9.5-14.2 4.1-18.8 5-4.6.9-14 .6-15.4 2.6-2.1 2.7 2 4.4 7.5 5.3 5.5.9 8.7-.6 12.3 1.4 1.7.9-6.4 8.9-13.7 9.6-7.3.7-18.6-1.4-22-3.4-3.4-2-5.9-4.2-7.9-2.2-3.9 3.9-.1 6.7 6 11.4s22.9 11.3 27 14c4.1 2.7 21.4 1.5 27.1-1.7 5.7-3.2 14.5-9.7 19-10.5 4.5-.8 72.7-7.9 72.7-7.9M406.55 997.5h433" fill="none" stroke="#212225" stroke-width="5"/>
  <path d="M 418.929 280.656 C 420.422 281.116 421.512 281.876 422.199 282.936 C 422.886 284.003 423.229 285.169 423.229 286.436 C 423.229 288.209 422.659 289.689 421.519 290.876 C 420.379 292.069 418.426 292.666 415.659 292.666 L 407.039 292.666 L 407.039 269.376 L 414.639 269.376 C 417.399 269.376 419.362 269.953 420.529 271.106 C 421.696 272.253 422.279 273.663 422.279 275.336 C 422.279 277.969 421.162 279.743 418.929 280.656 Z M 411.829 271.116 L 411.829 279.896 L 414.219 279.896 C 416.399 279.896 417.489 278.389 417.489 275.376 C 417.489 273.929 417.202 272.859 416.629 272.166 C 416.062 271.466 415.259 271.116 414.219 271.116 L 411.829 271.116 Z M 415.059 290.916 C 416.219 290.916 417.072 290.536 417.619 289.776 C 418.166 289.016 418.439 287.903 418.439 286.436 C 418.439 285.089 418.146 283.949 417.559 283.016 C 416.979 282.076 416.146 281.606 415.059 281.606 L 411.829 281.606 L 411.829 290.916 L 415.059 290.916 ZM 430.966 293.126 C 429.4 293.126 428.153 292.689 427.226 291.816 C 426.3 290.936 425.836 289.749 425.836 288.256 C 425.836 286.636 426.426 285.383 427.606 284.496 C 428.786 283.609 430.58 282.963 432.986 282.556 L 436.636 281.916 L 436.636 280.046 C 436.636 277.566 435.723 276.326 433.896 276.326 C 432.81 276.326 432.006 276.669 431.486 277.356 C 430.966 278.036 430.666 279.113 430.586 280.586 L 426.636 280.166 C 426.816 278.086 427.456 276.533 428.556 275.506 C 429.656 274.479 431.463 273.966 433.976 273.966 C 436.403 273.966 438.243 274.499 439.496 275.566 C 440.756 276.633 441.386 278.216 441.386 280.316 L 441.386 292.666 L 438.306 292.666 L 436.936 290.276 C 436.15 291.236 435.25 291.949 434.236 292.416 C 433.223 292.889 432.133 293.126 430.966 293.126 Z M 432.676 290.656 C 433.436 290.656 434.173 290.446 434.886 290.026 C 435.593 289.606 436.176 289.119 436.636 288.566 L 436.636 283.846 L 433.626 284.416 C 431.3 284.876 430.136 286.069 430.136 287.996 C 430.136 288.803 430.363 289.446 430.816 289.926 C 431.276 290.413 431.896 290.656 432.676 290.656 ZM 451.561 268.076 L 451.561 292.666 L 446.811 292.666 L 446.811 268.726 L 451.561 268.076 ZM 461.204 293.126 C 459.637 293.126 458.391 292.689 457.464 291.816 C 456.537 290.936 456.074 289.749 456.074 288.256 C 456.074 286.636 456.664 285.383 457.844 284.496 C 459.024 283.609 460.817 282.963 463.224 282.556 L 466.874 281.916 L 466.874 280.046 C 466.874 277.566 465.961 276.326 464.134 276.326 C 463.047 276.326 462.244 276.669 461.724 277.356 C 461.204 278.036 460.904 279.113 460.824 280.586 L 456.874 280.166 C 457.054 278.086 457.694 276.533 458.794 275.506 C 459.894 274.479 461.701 273.966 464.214 273.966 C 466.641 273.966 468.481 274.499 469.734 275.566 C 470.994 276.633 471.624 278.216 471.624 280.316 L 471.624 292.666 L 468.544 292.666 L 467.174 290.276 C 466.387 291.236 465.487 291.949 464.474 292.416 C 463.461 292.889 462.371 293.126 461.204 293.126 Z M 462.914 290.656 C 463.674 290.656 464.411 290.446 465.124 290.026 C 465.831 289.606 466.414 289.119 466.874 288.566 L 466.874 283.846 L 463.864 284.416 C 461.537 284.876 460.374 286.069 460.374 287.996 C 460.374 288.803 460.601 289.446 461.054 289.926 C 461.514 290.413 462.134 290.656 462.914 290.656 ZM 486.969 273.966 C 488.889 273.966 490.356 274.473 491.369 275.486 C 492.383 276.499 492.889 277.946 492.889 279.826 L 492.889 292.666 L 488.139 292.666 L 488.139 280.356 C 488.139 279.036 487.939 278.086 487.539 277.506 C 487.133 276.919 486.486 276.626 485.599 276.626 C 484.306 276.626 483.039 277.083 481.799 277.996 L 481.799 292.666 L 477.049 292.666 L 477.049 274.426 L 479.139 274.426 L 480.849 276.176 C 481.763 275.516 482.769 274.983 483.869 274.576 C 484.969 274.169 486.003 273.966 486.969 273.966 ZM 501.744 283.546 C 501.744 286.106 501.991 287.949 502.484 289.076 C 502.977 290.203 503.881 290.766 505.194 290.766 C 506.234 290.766 507.001 290.386 507.494 289.626 C 507.987 288.866 508.261 287.699 508.314 286.126 L 512.344 286.286 C 512.191 288.566 511.571 290.276 510.484 291.416 C 509.391 292.556 507.554 293.126 504.974 293.126 C 501.907 293.126 499.811 292.256 498.684 290.516 C 497.557 288.783 496.994 286.459 496.994 283.546 C 496.994 280.579 497.557 278.243 498.684 276.536 C 499.811 274.823 501.907 273.966 504.974 273.966 C 507.527 273.966 509.351 274.513 510.444 275.606 C 511.531 276.693 512.151 278.313 512.304 280.466 L 508.314 280.926 C 508.261 279.326 507.994 278.159 507.514 277.426 C 507.034 276.693 506.261 276.326 505.194 276.326 C 503.881 276.326 502.977 276.889 502.484 278.016 C 501.991 279.143 501.744 280.986 501.744 283.546 ZM 531.562 283.546 L 531.562 284.076 L 520.282 284.076 C 520.282 286.563 520.572 288.299 521.152 289.286 C 521.732 290.273 522.682 290.766 524.002 290.766 C 526.128 290.766 527.268 289.599 527.422 287.266 L 531.332 287.426 C 531.158 289.199 530.502 290.593 529.362 291.606 C 528.222 292.619 526.372 293.126 523.812 293.126 C 520.872 293.126 518.755 292.333 517.462 290.746 C 516.175 289.166 515.532 286.766 515.532 283.546 C 515.532 280.659 516.132 278.343 517.332 276.596 C 518.538 274.843 520.672 273.966 523.732 273.966 C 526.698 273.966 528.745 274.853 529.872 276.626 C 530.998 278.399 531.562 280.706 531.562 283.546 Z M 523.702 276.326 C 522.608 276.326 521.802 276.736 521.282 277.556 C 520.762 278.383 520.452 279.773 520.352 281.726 L 526.962 281.726 C 526.888 279.926 526.605 278.576 526.112 277.676 C 525.618 276.776 524.815 276.326 523.702 276.326 ZM 560.316 286.286 C 560.316 290.213 558.05 292.389 553.516 292.816 L 553.516 296.276 L 550.326 296.276 L 550.326 292.856 C 547.946 292.676 546.256 292.036 545.256 290.936 C 544.256 289.836 543.756 288.233 543.756 286.126 L 547.936 285.826 C 547.936 287.499 548.226 288.779 548.806 289.666 C 549.386 290.553 550.386 290.996 551.806 290.996 C 553.2 290.996 554.19 290.666 554.776 290.006 C 555.356 289.346 555.646 288.369 555.646 287.076 C 555.646 285.989 555.413 285.129 554.946 284.496 C 554.473 283.863 553.706 283.433 552.646 283.206 L 549.946 282.786 C 547.846 282.479 546.313 281.776 545.346 280.676 C 544.386 279.576 543.906 278.013 543.906 275.986 C 543.906 273.986 544.413 272.416 545.426 271.276 C 546.44 270.136 548.073 269.463 550.326 269.256 L 550.326 265.766 L 553.516 265.766 L 553.516 269.256 C 555.77 269.463 557.386 270.103 558.366 271.176 C 559.34 272.256 559.826 273.819 559.826 275.866 L 555.606 276.216 C 555.606 274.463 555.333 273.169 554.786 272.336 C 554.246 271.503 553.28 271.086 551.886 271.086 C 550.693 271.086 549.85 271.419 549.356 272.086 C 548.863 272.759 548.616 273.756 548.616 275.076 C 548.616 276.216 548.806 277.109 549.186 277.756 C 549.566 278.396 550.236 278.779 551.196 278.906 L 553.896 279.216 C 558.176 279.796 560.316 282.153 560.316 286.286 Z" transform="matrix(1, 0, 0, 1, 0, 0)" style="fill: rgb(219, 221, 230); white-space: pre;"></path>
  <path d="M 418.929 280.656 C 420.422 281.116 421.512 281.876 422.199 282.936 C 422.886 284.003 423.229 285.169 423.229 286.436 C 423.229 288.209 422.659 289.689 421.519 290.876 C 420.379 292.069 418.426 292.666 415.659 292.666 L 407.039 292.666 L 407.039 269.376 L 414.639 269.376 C 417.399 269.376 419.362 269.953 420.529 271.106 C 421.696 272.253 422.279 273.663 422.279 275.336 C 422.279 277.969 421.162 279.743 418.929 280.656 Z M 411.829 271.116 L 411.829 279.896 L 414.219 279.896 C 416.399 279.896 417.489 278.389 417.489 275.376 C 417.489 273.929 417.202 272.859 416.629 272.166 C 416.062 271.466 415.259 271.116 414.219 271.116 L 411.829 271.116 Z M 415.059 290.916 C 416.219 290.916 417.072 290.536 417.619 289.776 C 418.166 289.016 418.439 287.903 418.439 286.436 C 418.439 285.089 418.146 283.949 417.559 283.016 C 416.979 282.076 416.146 281.606 415.059 281.606 L 411.829 281.606 L 411.829 290.916 L 415.059 290.916 ZM 430.966 293.126 C 429.4 293.126 428.153 292.689 427.226 291.816 C 426.3 290.936 425.836 289.749 425.836 288.256 C 425.836 286.636 426.426 285.383 427.606 284.496 C 428.786 283.609 430.58 282.963 432.986 282.556 L 436.636 281.916 L 436.636 280.046 C 436.636 277.566 435.723 276.326 433.896 276.326 C 432.81 276.326 432.006 276.669 431.486 277.356 C 430.966 278.036 430.666 279.113 430.586 280.586 L 426.636 280.166 C 426.816 278.086 427.456 276.533 428.556 275.506 C 429.656 274.479 431.463 273.966 433.976 273.966 C 436.403 273.966 438.243 274.499 439.496 275.566 C 440.756 276.633 441.386 278.216 441.386 280.316 L 441.386 292.666 L 438.306 292.666 L 436.936 290.276 C 436.15 291.236 435.25 291.949 434.236 292.416 C 433.223 292.889 432.133 293.126 430.966 293.126 Z M 432.676 290.656 C 433.436 290.656 434.173 290.446 434.886 290.026 C 435.593 289.606 436.176 289.119 436.636 288.566 L 436.636 283.846 L 433.626 284.416 C 431.3 284.876 430.136 286.069 430.136 287.996 C 430.136 288.803 430.363 289.446 430.816 289.926 C 431.276 290.413 431.896 290.656 432.676 290.656 ZM 451.561 268.076 L 451.561 292.666 L 446.811 292.666 L 446.811 268.726 L 451.561 268.076 ZM 461.204 293.126 C 459.637 293.126 458.391 292.689 457.464 291.816 C 456.537 290.936 456.074 289.749 456.074 288.256 C 456.074 286.636 456.664 285.383 457.844 284.496 C 459.024 283.609 460.817 282.963 463.224 282.556 L 466.874 281.916 L 466.874 280.046 C 466.874 277.566 465.961 276.326 464.134 276.326 C 463.047 276.326 462.244 276.669 461.724 277.356 C 461.204 278.036 460.904 279.113 460.824 280.586 L 456.874 280.166 C 457.054 278.086 457.694 276.533 458.794 275.506 C 459.894 274.479 461.701 273.966 464.214 273.966 C 466.641 273.966 468.481 274.499 469.734 275.566 C 470.994 276.633 471.624 278.216 471.624 280.316 L 471.624 292.666 L 468.544 292.666 L 467.174 290.276 C 466.387 291.236 465.487 291.949 464.474 292.416 C 463.461 292.889 462.371 293.126 461.204 293.126 Z M 462.914 290.656 C 463.674 290.656 464.411 290.446 465.124 290.026 C 465.831 289.606 466.414 289.119 466.874 288.566 L 466.874 283.846 L 463.864 284.416 C 461.537 284.876 460.374 286.069 460.374 287.996 C 460.374 288.803 460.601 289.446 461.054 289.926 C 461.514 290.413 462.134 290.656 462.914 290.656 ZM 486.969 273.966 C 488.889 273.966 490.356 274.473 491.369 275.486 C 492.383 276.499 492.889 277.946 492.889 279.826 L 492.889 292.666 L 488.139 292.666 L 488.139 280.356 C 488.139 279.036 487.939 278.086 487.539 277.506 C 487.133 276.919 486.486 276.626 485.599 276.626 C 484.306 276.626 483.039 277.083 481.799 277.996 L 481.799 292.666 L 477.049 292.666 L 477.049 274.426 L 479.139 274.426 L 480.849 276.176 C 481.763 275.516 482.769 274.983 483.869 274.576 C 484.969 274.169 486.003 273.966 486.969 273.966 ZM 501.744 283.546 C 501.744 286.106 501.991 287.949 502.484 289.076 C 502.977 290.203 503.881 290.766 505.194 290.766 C 506.234 290.766 507.001 290.386 507.494 289.626 C 507.987 288.866 508.261 287.699 508.314 286.126 L 512.344 286.286 C 512.191 288.566 511.571 290.276 510.484 291.416 C 509.391 292.556 507.554 293.126 504.974 293.126 C 501.907 293.126 499.811 292.256 498.684 290.516 C 497.557 288.783 496.994 286.459 496.994 283.546 C 496.994 280.579 497.557 278.243 498.684 276.536 C 499.811 274.823 501.907 273.966 504.974 273.966 C 507.527 273.966 509.351 274.513 510.444 275.606 C 511.531 276.693 512.151 278.313 512.304 280.466 L 508.314 280.926 C 508.261 279.326 507.994 278.159 507.514 277.426 C 507.034 276.693 506.261 276.326 505.194 276.326 C 503.881 276.326 502.977 276.889 502.484 278.016 C 501.991 279.143 501.744 280.986 501.744 283.546 ZM 531.562 283.546 L 531.562 284.076 L 520.282 284.076 C 520.282 286.563 520.572 288.299 521.152 289.286 C 521.732 290.273 522.682 290.766 524.002 290.766 C 526.128 290.766 527.268 289.599 527.422 287.266 L 531.332 287.426 C 531.158 289.199 530.502 290.593 529.362 291.606 C 528.222 292.619 526.372 293.126 523.812 293.126 C 520.872 293.126 518.755 292.333 517.462 290.746 C 516.175 289.166 515.532 286.766 515.532 283.546 C 515.532 280.659 516.132 278.343 517.332 276.596 C 518.538 274.843 520.672 273.966 523.732 273.966 C 526.698 273.966 528.745 274.853 529.872 276.626 C 530.998 278.399 531.562 280.706 531.562 283.546 Z M 523.702 276.326 C 522.608 276.326 521.802 276.736 521.282 277.556 C 520.762 278.383 520.452 279.773 520.352 281.726 L 526.962 281.726 C 526.888 279.926 526.605 278.576 526.112 277.676 C 525.618 276.776 524.815 276.326 523.702 276.326 ZM 560.316 286.286 C 560.316 290.213 558.05 292.389 553.516 292.816 L 553.516 296.276 L 550.326 296.276 L 550.326 292.856 C 547.946 292.676 546.256 292.036 545.256 290.936 C 544.256 289.836 543.756 288.233 543.756 286.126 L 547.936 285.826 C 547.936 287.499 548.226 288.779 548.806 289.666 C 549.386 290.553 550.386 290.996 551.806 290.996 C 553.2 290.996 554.19 290.666 554.776 290.006 C 555.356 289.346 555.646 288.369 555.646 287.076 C 555.646 285.989 555.413 285.129 554.946 284.496 C 554.473 283.863 553.706 283.433 552.646 283.206 L 549.946 282.786 C 547.846 282.479 546.313 281.776 545.346 280.676 C 544.386 279.576 543.906 278.013 543.906 275.986 C 543.906 273.986 544.413 272.416 545.426 271.276 C 546.44 270.136 548.073 269.463 550.326 269.256 L 550.326 265.766 L 553.516 265.766 L 553.516 269.256 C 555.77 269.463 557.386 270.103 558.366 271.176 C 559.34 272.256 559.826 273.819 559.826 275.866 L 555.606 276.216 C 555.606 274.463 555.333 273.169 554.786 272.336 C 554.246 271.503 553.28 271.086 551.886 271.086 C 550.693 271.086 549.85 271.419 549.356 272.086 C 548.863 272.759 548.616 273.756 548.616 275.076 C 548.616 276.216 548.806 277.109 549.186 277.756 C 549.566 278.396 550.236 278.779 551.196 278.906 L 553.896 279.216 C 558.176 279.796 560.316 282.153 560.316 286.286 Z" transform="matrix(1, 0, 0, 1, 0, 0)" style="fill: rgb(219, 221, 230); white-space: pre;"></path>
  <path d="M 484.683 385.616 H 551.709 V 425.43 H 484.683 V 385.616 Z" style="fill: rgb(33, 34, 37);"></path>
  <path d="M 492.608 395.096 L 508.658 395.096 L 508.148 398.156 L 502.438 398.156 L 502.438 418.116 L 498.418 418.116 L 498.418 398.156 L 492.608 398.156 L 492.608 395.096 ZM 522.928 397.276 L 521.878 399.956 C 521.378 399.776 520.835 399.629 520.248 399.516 C 519.655 399.403 519.065 399.346 518.478 399.346 C 517.478 399.346 516.668 399.529 516.048 399.896 C 515.421 400.256 514.928 400.753 514.568 401.386 C 514.201 402.019 513.945 402.749 513.798 403.576 C 513.651 404.409 513.568 405.299 513.548 406.246 C 513.728 406.019 513.961 405.783 514.248 405.536 C 514.528 405.289 514.855 405.056 515.228 404.836 C 515.601 404.623 516.028 404.443 516.508 404.296 C 516.981 404.149 517.511 404.076 518.098 404.076 C 520.098 404.076 521.665 404.693 522.798 405.926 C 523.931 407.159 524.498 408.899 524.498 411.146 C 524.498 412.166 524.331 413.113 523.998 413.986 C 523.671 414.859 523.191 415.619 522.558 416.266 C 521.925 416.913 521.141 417.416 520.208 417.776 C 519.281 418.136 518.205 418.316 516.978 418.316 C 515.551 418.316 514.358 418.046 513.398 417.506 C 512.431 416.959 511.655 416.199 511.068 415.226 C 510.475 414.253 510.048 413.089 509.788 411.736 C 509.528 410.389 509.398 408.913 509.398 407.306 C 509.398 405.853 509.568 404.463 509.908 403.136 C 510.248 401.809 510.788 400.649 511.528 399.656 C 512.261 398.656 513.211 397.856 514.378 397.256 C 515.545 396.656 516.955 396.356 518.608 396.356 C 519.448 396.356 520.231 396.446 520.958 396.626 C 521.685 396.806 522.341 397.023 522.928 397.276 Z M 517.358 406.996 C 516.905 406.996 516.461 407.066 516.028 407.206 C 515.595 407.339 515.208 407.503 514.868 407.696 C 514.528 407.889 514.241 408.069 514.008 408.236 C 513.768 408.409 513.615 408.529 513.548 408.596 C 513.635 410.929 513.958 412.653 514.518 413.766 C 515.071 414.873 515.995 415.426 517.288 415.426 C 518.441 415.426 519.275 415.036 519.788 414.256 C 520.295 413.476 520.548 412.449 520.548 411.176 C 520.548 410.003 520.318 409.013 519.858 408.206 C 519.391 407.399 518.558 406.996 517.358 406.996 ZM 528.427 417.406 L 529.487 414.716 C 530.007 414.896 530.561 415.043 531.147 415.156 C 531.741 415.269 532.331 415.326 532.917 415.326 C 533.891 415.326 534.691 415.146 535.317 414.786 C 535.937 414.419 536.431 413.926 536.797 413.306 C 537.157 412.679 537.411 411.953 537.557 411.126 C 537.704 410.299 537.791 409.423 537.817 408.496 C 537.637 408.723 537.404 408.959 537.117 409.206 C 536.837 409.459 536.511 409.686 536.137 409.886 C 535.757 410.093 535.331 410.263 534.857 410.396 C 534.384 410.536 533.851 410.606 533.257 410.606 C 531.264 410.606 529.701 409.986 528.567 408.746 C 527.434 407.513 526.867 405.773 526.867 403.526 C 526.867 402.506 527.031 401.559 527.357 400.686 C 527.691 399.819 528.174 399.063 528.807 398.416 C 529.441 397.769 530.227 397.263 531.167 396.896 C 532.107 396.536 533.191 396.356 534.417 396.356 C 535.844 396.356 537.041 396.629 538.007 397.176 C 538.967 397.716 539.741 398.473 540.327 399.446 C 540.921 400.426 541.341 401.589 541.587 402.936 C 541.841 404.283 541.967 405.763 541.967 407.376 C 541.967 408.823 541.797 410.209 541.457 411.536 C 541.117 412.863 540.577 414.026 539.837 415.026 C 539.104 416.019 538.157 416.816 536.997 417.416 C 535.844 418.016 534.441 418.316 532.787 418.316 C 531.947 418.316 531.157 418.226 530.417 418.046 C 529.684 417.866 529.021 417.653 528.427 417.406 Z M 534.007 407.676 C 534.461 407.676 534.904 407.609 535.337 407.476 C 535.764 407.336 536.147 407.176 536.487 406.996 C 536.827 406.816 537.117 406.639 537.357 406.466 C 537.597 406.299 537.751 406.193 537.817 406.146 C 537.751 403.793 537.434 402.053 536.867 400.926 C 536.301 399.806 535.381 399.246 534.107 399.246 C 532.954 399.246 532.117 399.643 531.597 400.436 C 531.071 401.229 530.807 402.249 530.807 403.496 C 530.807 404.083 530.864 404.633 530.977 405.146 C 531.091 405.653 531.274 406.093 531.527 406.466 C 531.774 406.846 532.101 407.143 532.507 407.356 C 532.921 407.569 533.421 407.676 534.007 407.676 Z" transform="matrix(1, 0, 0, 1, 0, 0)" style="fill: rgb(255, 255, 255); white-space: pre;"></path>
  <path d="M 295.128 202.431 L 303.058 202.431 L 303.058 244.031 L 292.788 244.031 L 292.788 213.611 C 291.661 214.478 290.468 215.258 289.208 215.951 C 287.955 216.644 286.635 217.231 285.248 217.711 L 281.668 211.081 C 283.875 210.128 286.138 209.011 288.458 207.731 C 290.778 206.451 293.001 204.684 295.128 202.431 ZM 328.79 202.101 C 334.164 202.101 338.237 203.934 341.01 207.601 C 343.784 211.261 345.17 216.361 345.17 222.901 C 345.17 226.154 344.804 229.114 344.07 231.781 C 343.33 234.441 342.234 236.724 340.78 238.631 C 339.327 240.538 337.53 242.011 335.39 243.051 C 333.244 244.091 330.76 244.611 327.94 244.611 C 322.527 244.611 318.424 242.824 315.63 239.251 C 312.837 235.678 311.44 230.574 311.44 223.941 C 311.44 220.694 311.817 217.728 312.57 215.041 C 313.33 212.354 314.437 210.058 315.89 208.151 C 317.344 206.244 319.154 204.761 321.32 203.701 C 323.487 202.634 325.977 202.101 328.79 202.101 Z M 327.94 209.321 C 325.954 209.321 324.547 210.481 323.72 212.801 C 322.9 215.114 322.49 218.591 322.49 223.231 C 322.49 225.398 322.574 227.358 322.74 229.111 C 322.914 230.864 323.23 232.361 323.69 233.601 C 324.144 234.834 324.78 235.788 325.6 236.461 C 326.427 237.128 327.47 237.461 328.73 237.461 C 330.677 237.461 332.05 236.314 332.85 234.021 C 333.657 231.721 334.06 228.274 334.06 223.681 C 334.06 221.514 333.974 219.554 333.8 217.801 C 333.627 216.048 333.31 214.541 332.85 213.281 C 332.397 212.028 331.78 211.054 331 210.361 C 330.22 209.668 329.2 209.321 327.94 209.321 ZM 352.386 236.421 C 352.426 236.381 352.566 236.284 352.806 236.131 C 353.046 235.978 353.393 235.804 353.846 235.611 C 354.3 235.418 354.896 235.244 355.636 235.091 C 356.37 234.938 357.236 234.861 358.236 234.861 C 360.23 234.861 361.626 235.448 362.426 236.621 C 363.226 237.788 363.626 239.174 363.626 240.781 C 363.626 243.554 362.826 246.231 361.226 248.811 C 359.62 251.384 357.04 253.584 353.486 255.411 L 349.716 250.271 C 351.276 249.144 352.326 247.941 352.866 246.661 C 353.406 245.388 353.676 244.144 353.676 242.931 C 353.676 241.584 353.483 240.348 353.096 239.221 C 352.71 238.094 352.473 237.161 352.386 236.421 ZM 386.83 202.101 C 392.203 202.101 396.276 203.934 399.05 207.601 C 401.823 211.261 403.21 216.361 403.21 222.901 C 403.21 226.154 402.843 229.114 402.11 231.781 C 401.37 234.441 400.273 236.724 398.82 238.631 C 397.366 240.538 395.57 242.011 393.43 243.051 C 391.283 244.091 388.8 244.611 385.98 244.611 C 380.566 244.611 376.463 242.824 373.67 239.251 C 370.876 235.678 369.48 230.574 369.48 223.941 C 369.48 220.694 369.856 217.728 370.61 215.041 C 371.37 212.354 372.476 210.058 373.93 208.151 C 375.383 206.244 377.193 204.761 379.36 203.701 C 381.526 202.634 384.016 202.101 386.83 202.101 Z M 385.98 209.321 C 383.993 209.321 382.586 210.481 381.76 212.801 C 380.94 215.114 380.53 218.591 380.53 223.231 C 380.53 225.398 380.613 227.358 380.78 229.111 C 380.953 230.864 381.27 232.361 381.73 233.601 C 382.183 234.834 382.82 235.788 383.64 236.461 C 384.466 237.128 385.51 237.461 386.77 237.461 C 388.716 237.461 390.09 236.314 390.89 234.021 C 391.696 231.721 392.1 228.274 392.1 223.681 C 392.1 221.514 392.013 219.554 391.84 217.801 C 391.666 216.048 391.35 214.541 390.89 213.281 C 390.436 212.028 389.82 211.054 389.04 210.361 C 388.26 209.668 387.24 209.321 385.98 209.321 ZM 425.436 202.101 C 430.809 202.101 434.882 203.934 437.656 207.601 C 440.429 211.261 441.816 216.361 441.816 222.901 C 441.816 226.154 441.449 229.114 440.716 231.781 C 439.976 234.441 438.879 236.724 437.426 238.631 C 435.972 240.538 434.176 242.011 432.036 243.051 C 429.889 244.091 427.406 244.611 424.586 244.611 C 419.172 244.611 415.069 242.824 412.276 239.251 C 409.482 235.678 408.086 230.574 408.086 223.941 C 408.086 220.694 408.462 217.728 409.216 215.041 C 409.976 212.354 411.082 210.058 412.536 208.151 C 413.989 206.244 415.799 204.761 417.966 203.701 C 420.132 202.634 422.622 202.101 425.436 202.101 Z M 424.586 209.321 C 422.599 209.321 421.192 210.481 420.366 212.801 C 419.546 215.114 419.136 218.591 419.136 223.231 C 419.136 225.398 419.219 227.358 419.386 229.111 C 419.559 230.864 419.876 232.361 420.336 233.601 C 420.789 234.834 421.426 235.788 422.246 236.461 C 423.072 237.128 424.116 237.461 425.376 237.461 C 427.322 237.461 428.696 236.314 429.496 234.021 C 430.302 231.721 430.706 228.274 430.706 223.681 C 430.706 221.514 430.619 219.554 430.446 217.801 C 430.272 216.048 429.956 214.541 429.496 213.281 C 429.042 212.028 428.426 211.054 427.646 210.361 C 426.866 209.668 425.846 209.321 424.586 209.321 ZM 464.042 202.101 C 469.415 202.101 473.488 203.934 476.262 207.601 C 479.035 211.261 480.422 216.361 480.422 222.901 C 480.422 226.154 480.055 229.114 479.322 231.781 C 478.582 234.441 477.485 236.724 476.032 238.631 C 474.578 240.538 472.782 242.011 470.642 243.051 C 468.495 244.091 466.012 244.611 463.192 244.611 C 457.778 244.611 453.675 242.824 450.882 239.251 C 448.088 235.678 446.692 230.574 446.692 223.941 C 446.692 220.694 447.068 217.728 447.822 215.041 C 448.582 212.354 449.688 210.058 451.142 208.151 C 452.595 206.244 454.405 204.761 456.572 203.701 C 458.738 202.634 461.228 202.101 464.042 202.101 Z M 463.192 209.321 C 461.205 209.321 459.798 210.481 458.972 212.801 C 458.152 215.114 457.742 218.591 457.742 223.231 C 457.742 225.398 457.825 227.358 457.992 229.111 C 458.165 230.864 458.482 232.361 458.942 233.601 C 459.395 234.834 460.032 235.788 460.852 236.461 C 461.678 237.128 462.722 237.461 463.982 237.461 C 465.928 237.461 467.302 236.314 468.102 234.021 C 468.908 231.721 469.312 228.274 469.312 223.681 C 469.312 221.514 469.225 219.554 469.052 217.801 C 468.878 216.048 468.562 214.541 468.102 213.281 C 467.648 212.028 467.032 211.054 466.252 210.361 C 465.472 209.668 464.452 209.321 463.192 209.321 ZM 492.118 233.041 C 493.938 233.041 495.335 233.584 496.308 234.671 C 497.281 235.751 497.768 237.114 497.768 238.761 C 497.768 240.414 497.281 241.814 496.308 242.961 C 495.335 244.108 493.895 244.681 491.988 244.681 C 490.168 244.681 488.761 244.118 487.768 242.991 C 486.768 241.864 486.268 240.544 486.268 239.031 C 486.268 237.338 486.768 235.918 487.768 234.771 C 488.761 233.618 490.211 233.041 492.118 233.041 ZM 520.976 202.101 C 526.35 202.101 530.423 203.934 533.196 207.601 C 535.97 211.261 537.356 216.361 537.356 222.901 C 537.356 226.154 536.99 229.114 536.256 231.781 C 535.516 234.441 534.42 236.724 532.966 238.631 C 531.513 240.538 529.716 242.011 527.576 243.051 C 525.43 244.091 522.946 244.611 520.126 244.611 C 514.713 244.611 510.61 242.824 507.816 239.251 C 505.023 235.678 503.626 230.574 503.626 223.941 C 503.626 220.694 504.003 217.728 504.756 215.041 C 505.516 212.354 506.623 210.058 508.076 208.151 C 509.53 206.244 511.34 204.761 513.506 203.701 C 515.673 202.634 518.163 202.101 520.976 202.101 Z M 520.126 209.321 C 518.14 209.321 516.733 210.481 515.906 212.801 C 515.086 215.114 514.676 218.591 514.676 223.231 C 514.676 225.398 514.76 227.358 514.926 229.111 C 515.1 230.864 515.416 232.361 515.876 233.601 C 516.33 234.834 516.966 235.788 517.786 236.461 C 518.613 237.128 519.656 237.461 520.916 237.461 C 522.863 237.461 524.236 236.314 525.036 234.021 C 525.843 231.721 526.246 228.274 526.246 223.681 C 526.246 221.514 526.16 219.554 525.986 217.801 C 525.813 216.048 525.496 214.541 525.036 213.281 C 524.583 212.028 523.966 211.054 523.186 210.361 C 522.406 209.668 521.386 209.321 520.126 209.321 ZM 559.582 202.101 C 564.956 202.101 569.029 203.934 571.802 207.601 C 574.576 211.261 575.962 216.361 575.962 222.901 C 575.962 226.154 575.596 229.114 574.862 231.781 C 574.122 234.441 573.026 236.724 571.572 238.631 C 570.119 240.538 568.322 242.011 566.182 243.051 C 564.036 244.091 561.552 244.611 558.732 244.611 C 553.319 244.611 549.216 242.824 546.422 239.251 C 543.629 235.678 542.232 230.574 542.232 223.941 C 542.232 220.694 542.609 217.728 543.362 215.041 C 544.122 212.354 545.229 210.058 546.682 208.151 C 548.136 206.244 549.946 204.761 552.112 203.701 C 554.279 202.634 556.769 202.101 559.582 202.101 Z M 558.732 209.321 C 556.746 209.321 555.339 210.481 554.512 212.801 C 553.692 215.114 553.282 218.591 553.282 223.231 C 553.282 225.398 553.366 227.358 553.532 229.111 C 553.706 230.864 554.022 232.361 554.482 233.601 C 554.936 234.834 555.572 235.788 556.392 236.461 C 557.219 237.128 558.262 237.461 559.522 237.461 C 561.469 237.461 562.842 236.314 563.642 234.021 C 564.449 231.721 564.852 228.274 564.852 223.681 C 564.852 221.514 564.766 219.554 564.592 217.801 C 564.419 216.048 564.102 214.541 563.642 213.281 C 563.189 212.028 562.572 211.054 561.792 210.361 C 561.012 209.668 559.992 209.321 558.732 209.321 ZM 595.132 200.021 L 627.832 200.021 L 626.462 207.891 L 616.322 207.891 L 616.322 244.031 L 605.602 244.031 L 605.602 207.891 L 595.132 207.891 L 595.132 200.021 ZM 656.294 204.051 L 653.564 211.271 C 652.524 210.924 651.397 210.621 650.184 210.361 C 648.97 210.101 647.8 209.971 646.674 209.971 C 644.247 209.971 642.48 210.901 641.374 212.761 C 640.267 214.628 639.587 217.058 639.334 220.051 C 640.24 219.311 641.334 218.648 642.614 218.061 C 643.894 217.474 645.354 217.181 646.994 217.181 C 648.774 217.181 650.424 217.454 651.944 218.001 C 653.457 218.541 654.777 219.364 655.904 220.471 C 657.03 221.571 657.92 222.978 658.574 224.691 C 659.22 226.404 659.544 228.408 659.544 230.701 C 659.544 232.694 659.187 234.548 658.474 236.261 C 657.76 237.974 656.72 239.448 655.354 240.681 C 653.987 241.914 652.34 242.878 650.414 243.571 C 648.487 244.264 646.31 244.611 643.884 244.611 C 641.15 244.611 638.797 244.081 636.824 243.021 C 634.857 241.961 633.234 240.488 631.954 238.601 C 630.674 236.714 629.72 234.471 629.094 231.871 C 628.467 229.278 628.154 226.441 628.154 223.361 C 628.154 220.588 628.544 217.921 629.324 215.361 C 630.104 212.808 631.27 210.554 632.824 208.601 C 634.39 206.654 636.354 205.094 638.714 203.921 C 641.074 202.754 643.834 202.171 646.994 202.171 C 648.6 202.171 650.27 202.344 652.004 202.691 C 653.737 203.038 655.167 203.491 656.294 204.051 Z M 644.274 224.271 C 643.274 224.271 642.307 224.531 641.374 225.051 C 640.447 225.571 639.744 226.071 639.264 226.551 C 639.437 230.531 639.947 233.368 640.794 235.061 C 641.64 236.748 642.887 237.591 644.534 237.591 C 645.354 237.591 646.047 237.408 646.614 237.041 C 647.174 236.674 647.627 236.178 647.974 235.551 C 648.32 234.918 648.58 234.191 648.754 233.371 C 648.927 232.551 649.014 231.684 649.014 230.771 C 649.014 228.471 648.59 226.814 647.744 225.801 C 646.897 224.781 645.74 224.271 644.274 224.271 ZM 666.295 242.731 L 669.035 235.451 C 670.069 235.798 671.205 236.111 672.445 236.391 C 673.679 236.678 674.859 236.821 675.985 236.821 C 677.199 236.821 678.229 236.571 679.075 236.071 C 679.922 235.571 680.635 234.864 681.215 233.951 C 681.802 233.044 682.259 231.974 682.585 230.741 C 682.912 229.501 683.139 228.124 683.265 226.611 C 682.399 227.304 681.315 227.944 680.015 228.531 C 678.715 229.111 677.242 229.401 675.595 229.401 C 673.815 229.401 672.169 229.131 670.655 228.591 C 669.135 228.051 667.815 227.228 666.695 226.121 C 665.569 225.014 664.679 223.608 664.025 221.901 C 663.379 220.188 663.055 218.184 663.055 215.891 C 663.055 213.891 663.422 212.048 664.155 210.361 C 664.895 208.674 665.935 207.224 667.275 206.011 C 668.622 204.798 670.259 203.854 672.185 203.181 C 674.112 202.508 676.289 202.171 678.715 202.171 C 681.449 202.171 683.799 202.691 685.765 203.731 C 687.739 204.771 689.365 206.221 690.645 208.081 C 691.925 209.948 692.879 212.171 693.505 214.751 C 694.132 217.331 694.445 220.158 694.445 223.231 C 694.445 226.004 694.055 228.681 693.275 231.261 C 692.495 233.834 691.325 236.108 689.765 238.081 C 688.205 240.054 686.245 241.638 683.885 242.831 C 681.525 244.018 678.762 244.611 675.595 244.611 C 673.989 244.611 672.319 244.428 670.585 244.061 C 668.859 243.694 667.429 243.251 666.295 242.731 Z M 678.325 222.321 C 679.325 222.321 680.279 222.061 681.185 221.541 C 682.092 221.021 682.809 220.544 683.335 220.111 C 683.162 216.124 682.642 213.308 681.775 211.661 C 680.909 210.014 679.672 209.191 678.065 209.191 C 677.285 209.191 676.602 209.364 676.015 209.711 C 675.435 210.058 674.972 210.534 674.625 211.141 C 674.272 211.748 674.009 212.451 673.835 213.251 C 673.669 214.058 673.585 214.914 673.585 215.821 C 673.585 218.074 674.005 219.721 674.845 220.761 C 675.692 221.801 676.852 222.321 678.325 222.321 Z" transform="matrix(1, 0, 0, 1, 0, 0)" style="fill: rgb(219, 221, 230); white-space: pre;"></path>
</svg>
